<?xml version="1.0"?>
<!--
************* Copyright (c) 2017 Pareto Softare, LLC DBA Simplemaps.com *******************		
************* Free for Commercial Use, full terms at  http://simplemaps.com/resources/svg-license ************
************* Attribution is appreciated! http://simplemaps.com ***************************
-->
<svg baseprofile="tiny" fill="#7c7c7c" height="7297" stroke="#ffffff" stroke-linecap="round" stroke-linejoin="round" stroke-width="2" version="1.2" viewbox="0 0 1000 7297" width="1000" xmlns="http://www.w3.org/2000/svg">
 <path d="M467.1 270.3l-2.8-2.2 0.8-6.6 14.6 2.2-7.3 5-5.3 1.6z m-178.7-15.8l-0.9 1.1-2-0.8 0.8-4.6 1.7-0.5 1.7 1 1.7 0.5-1.9 1.4-1.1 1.9z m139-1.9l-0.9 1.2-2.1-1 0.9-4.4 1.5-0.6 1.8 1 1.7 0.5-2 1.5-0.9 1.8z m-156.1-5.6l-2.5-3.6 0.8-1.6 1.9-0.6 1.6-0.8-0.5 2.5 0.6 2 0.1 1.4-2 0.7z m112.9-2.7l-1 1.1-1.1-0.4-0.9-0.3 1-4.5 1.5-0.7 1.8 1.1 1.6 0.5-0.1 0-1.9 1.5-0.9 1.7z m-125.6-6.9l0 0.1-2.1-1 0.8-4.3 1.8-0.8 1.7 1.1 1.6 0.6-1.9 1.4-1.9 2.9z m136.4-32.3l-2.1 0.8-2.4-3.7 0.5-1.6 2-0.5 1.6-0.9-0.4 2.5 0.5 2 0.2 1.3 0.1 0.1z m95.4-0.6l-4.5 5.7-2.7-7.7 0.8-8.5 2.8-9 4-6.1 4.6-0.3-0.9 13.1-4.1 12.8z m-14.3-56.4l-0.8-0.2-0.6-0.4-0.7-9.1 0.7-5.9 2-3.1 4.1-0.5-3.5 19-0.8 0.2-0.4 0z m-199.6-72.1l1.6 12.8-3.9-4.8-0.1-3.4 2.4-4.7 0 0.1z m-62.5-61.2l-0.9 8.8-5.1-5.4 0.2-1.9 2.8-0.6 3-1 0 0.1z m-26.4-10.5l-1.9 2 1.2-5.3 0.7 1.5 0 1.8z" id="MDV5223" name="Haa Alifu">
 </path>
 <path d="M3.5 654.8l1.5 0.7 1.6 0-1.9 1.7-1.5 2.2-1.2 0.9-1-1.8 1-3 1.5-0.7z m253.6-134.6l-0.9 1-2.1-0.9 1-4.4 1.4-0.6 1.8 1.1 1.7 0.4-2 1.5-0.9 1.9z m-29.2-3.3l0 0.1-4.3-1-0.5-1.5 0.9-1.8 0.4-1.7 1.5 2.1 1.8 0.9 1.1 0.9-0.9 2z m96-16.1l-2.2 0.9-0.7-1.3-1.7-2.6 0.5-1.4 2.1-0.6 1.5-0.9-0.1 0.2-0.4 2.3 0.7 2 0.2 1.4 0.1 0z m10.3-39.8l-0.8 1.2-2.1-1 0.9-4.4 1.5-0.7 1.9 1 1.6 0.6-1.9 1.5-1.1 1.8z m26.1-46.6l-7.2 6.6 0.5-5.6 1.7-1.4 2.4 0.2 2.6 0.2z m24.8-28.7l-0.1 0 0.7-7.2 2.5-2.6 6.2-1-2.3 3.8-1.1 3.4-1.8 2.4-4.1 1.2z m-55.2-51.8l-2.1 0.9-0.7-1.2-1.8-2.6 0.8-1.5 1.9-0.5 1.6-0.9 0 0.1-0.4 2.3 0.1 0.3 0.5 1.6 0.1 1.5z m-113.5-6.5l-1 1.1-1.8-0.8-0.1 0 0.9-4.5 1.5-0.6 1.8 1 1.6 0.5-1.9 1.4-1 1.9z m202.2 33.2l-0.2 0.1 4.1-15.2 15.4-25.4 6.5-17.2 4.4-0.5 1.3 1.2 0 2.4 0.9 2.7-12.8 29.3-7.5 12.8-12.1 9.8z" id="MDV5224" name="Haa Dhaalu">
 </path>
 <path d="M526.4 940.8l-0.4 0.3 1.9-2.3 2.9-1-4.4 3z m16.9-40.1l-0.2 0.1 0.2-2.8 1.2-1.2 1.5-0.7 1.9-1.3-1.4 2.3-0.7 2-0.7 1.4-1.8 0.2z m5.1-36.3l-2.6 10-2.5-3.8 0.6-2.2 2.2-1.7 2.3-2.4 0 0.1z m-225.8-27.9l1.3-1.9 3.5-1.3-0.2 0.2-4.6 3z m200.7-11.9l-3.5 2.6-3.6-3 0.7-2.1 2.5-2 1.8-3 0.5 3 1.3 2.3 0.3 2.2z m-32.5-51.7l0.2-0.2 5.4-7.5 0 0.2-1.9 5.1-3.7 2.4z m-122.1-17.3l-0.3 0 4.9-3.3-1.9 2.8-2.7 0.5z m115.3-16.1l-0.8 3.7-5.6-1.3 0-0.3-0.8-1.5 1.7-2.6 1-2.9 1.1 2.6 2 0.9 1.4 1.4z m-76.8-6.5l-0.3 0.2 1.5-2 3.3-1.4-0.3 0.2-4.2 3z m-154.8-15.5l-0.8 2-4.3-0.9-0.7-1.4 1.2-2 0.3-1.5 1.5 1.8 1.9 1 0.4 0.4 0.5 0.6z m218-4.9l-2.3 1.7-1.2 1.6-1.3 0.9-1.9-0.7 0.8-2.6 1.5-0.6 2.1 0.2 2.3-0.5z m-151.7-13.2l-0.7 2-4.6-0.8-0.5-1.5 1.1-1.9 0.6-1.7 1.2 2.1 2 0.9 0.9 0.9z m-109.7-66.7l-0.8 1.9-4.3-0.9-0.8-1.5 1-1.8 0.6-1.8 1.5 2.1 1.8 1 0.5 0.4 0.5 0.5 0 0.1z m-9.6-11.3l-0.8 1.9-4.3-0.9-0.8-1.4 1.1-1.9 0.5-1.7 1.5 2 1.8 1 1 0.9 0 0.1z" id="MDV5225" name="Shaviyani">
 </path>
 <path d="M297.9 1551.6l-1.6 1.2-1.8-4.4 0-0.1 0.9-1.3 2.6 0 2.7-0.7-1.4 1.7-1.4 3.6z m-58.3-4.3l-1.9 0.6-1.1-3.8 1.1-1.1 2.2-0.1 2.4-0.7-1.5 1.9-0.4 1.9-0.8 1.3z m66.2-23.2l-0.1 0-1-3.2-0.1-0.6 1-1.2 2.1 0 2.6-0.6-1.5 1.8-0.4 1.9-0.8 1.3-1.8 0.6z m-121.4-1.5l-1.9 0.6-1.3-4 0-0.1 1-0.9 2.2-0.1 2.6-0.8-1.3 2-0.7 1.8-0.6 1.5z m124.3-115.6l-0.2 0-1.1-3.8 1-1.2 2.4 0 2.4-0.8-0.1 0.1-1.5 1.9-0.4 1.8-0.7 1.4-1.8 0.6z m-2.2-56.3l-1.9 0.7-1.2-3.9 1.2-1 2.1-0.2 2.4-0.7 0 0.1-1.4 1.8-0.6 1.9-0.6 1.3z m-5.8-39.2l-1.8 2.1-0.5 2.2-0.8 1.6-2.4 0.1-0.9-4.7 1.3-1.2 2.4 0.4 2.7-0.5z m-28.5-85.7l0 0.2-2.5-2.5-1.4-1.3 0.1-1.9 2.5-1.2 2.6-1.8 0 0.1-1.3 8.4z m-8.1-42.9l-3.6-3-0.6-3 1.5-7.2 0.1 0.3 2.6 12.9z m-32.5-111.6l-1.4 11.4-4.1-5.9 0.6-2.9 4.9-2.6z m-17.1-7.8l-0.5 1-1.4-0.7-1.4-0.8-0.2-3.9 1.2-0.6 2 1 2.5 0.3-1.8 1.6-0.4 2.1z" id="MDV5226" name="Raa">
 </path>
 <path d="M662 1289.5l-10.9 20.8-0.1-0.1-1-0.4 2.8-6.5 9.6-14.7-0.4 0.9z m-7.4-47.1l-3.5 2.6-3.7-3 0.8-2.1 2.4-2 2-3.1 0 0.3 0.3 2.8 1.5 2.3 0.2 2.2z m46-41.3l-0.3 0.2 5.2-7.1 3.9-2.8 3.2-0.3 3.1 0.7-0.1 0.1-15 9.2z m-4.9-69.1l-2.1 1.1-2.9-3.4 0.9-1.4 2.3-1 2.3-1.8 0 0.2-0.5 2.4 0 3.9z" id="MDV5227" name="Noonu">
 </path>
 <path d="M267.1 2092.7l-0.2 0.2 0.6-9.2 2.4-3.8 3.2-0.7 3-0.3 0 0.1-9 13.7z m-43.9-17.1l-1.7 1-3-0.6-0.2 0 5.1-0.5-0.2 0.1z m1.6-125.8l3.1-3.2-0.1 0.2-0.5 2.2-2.5 0.8z m118.7-87.7l-3.6 0.2-2.2-2.3 0.8-1.3 1.6-1 1.2-1.9 0 0.2 0.8 2.6 1.4 2.1 0 1.4z m51.8-42.4l3.4 1.4-0.3 0-2.9-0.6-3.1-1.9 0.3 0.1 2.6 1z m-233.6-58.9l3-3-0.8 2.2-2.2 0.8z" id="MDV5228" name="Baa">
 </path>
 <path d="M760 1751l-0.1 0-3.2-0.9 5.5-0.8-2.2 1.7z m79.9-28.6l-4.9 0.9-7-2-0.1 0 5.5-3 5.7-1.8 5.5-0.7 5.3-0.1-10 6.7z m-110.7-29.4l2.5-1.4 0.1 0 2.9 0.6-0.1 0-5.4 0.8z m164.1-33.1l-0.1 0 3.2-1.7 2.9 0.7-6 1z m-223.1-13.1l-1.7 0.6-3-1.6-0.2-1.2 1.1-1.6 0.3-1.9 0.1 0.2 1.1 2.2 1.8 1.9 0.5 1.4z m-72.8-11.4l1.5 1.4 2.8-0.2 0.3 0 1.8 0.1-1.2 2.5-8.9 1.2-0.1 0-1.4-2.7 1.4-0.8 2.6-0.2 1.2-1.3z m288.9-16.9l0 0.2-4.4-25.5 1.6-5 4.7 7.1 2 7.6-0.7 7.9-3.2 7.7z m-253.7-67.3l-0.2 0.1 2.1-4.9 0 0.3 0.1 3.2-2 1.3z" id="MDV5229" name="Lhaviyani">
 </path>
 <path d="M699.3 3066.2l-0.8-1.8 0.9-2.9 1.4-0.6 1.6 0.6 1.5 0.1-1.9 1.6-1.7 2.1-1 0.9z m5.7-70.1l-0.3 0.2 5-3.8-0.4 1.6-4.3 2z m29.4-17.3l-2.2 1.3 1.6-3 2.1-1.7 5.2-3.1-6.7 6.5z m35.9-148.3l0 0.1-3.5-3-2-1.9-0.2-2.1 2.8-1.1 2.7-1.5 0.2 9.5z m-83.4-20.9l-0.1 0 3.4-2.4-0.1 0.1-1 1.7-2.2 0.6z m165-212.1l-3 1.9-2.9-0.4-0.3 0 6.4-1.6-0.2 0.1z m15.1-13.4l-2.2 0.8-1.7-2.3 0.5-1.3 1.5-1.3 1.5-2.1-0.1 2.6 0.6 2.1-0.1 1.5z m23.5-7.1l0 0.1-3.2-0.7-1.8-3.6 1.2-0.9 2.3-0.1 2.4-0.9-0.1 0.1-0.8 2.2 0.4 2.3 0 0.2-0.4 1.3z m29.2-21.4l-2 0.9-1.7-2.3 0.5-1.3 1.5-1.4 1.4-2.1-0.1 2.6 0.6 2.1-0.2 1.5z m-272.4-82l0.6 8.5-3.2-1.6 0-1.8 1.3-2.1 1.3-3z m165.5-130.8l-2.1 0.9-0.6-0.8-1.1-1.4 0.6-1.4 1.5-1.3 1.4-2.1-0.1 2.6 0.6 2.1-0.2 1.4z m-138.8-13.5l-2.1 0.9-1.7-2.3 0.6-1.4 1.6-1.3 1.3-2.1 0 2.6 0.5 2.1-0.2 1.5z m79.8-82.8l-2.1 0.7-0.5-0.6-1.2-1.5 0.6-1.5 1.6-1.3 1.4-2.1-0.1 2.7 0.6 2.1-0.3 1.5z m-40.6-238.8l-10 1.4 2.3-4.4 2-0.3 2.5 1.7 3.2 1.6z" id="MDV5230" name="Kaafu">
 </path>
 <path d="M21.4 2920l-1.9 1.4-4.8-1.6-0.1-0.1-0.2-1.1-0.1-0.1 2-1.3 1.8-2.3 0.5 2.3 1 0.9 0.8 0.7 1 1.2z m251.4-245.9l-3.1 0-0.9-1.1-0.1-1.9-0.9-2.2 0.2 0.1 1.7 1.6 1.8 0.8 1.1 0.9 0.2 1.8z m-19.9-1l-0.1 0-3-0.8-5.6-3.7 12.6 3.5-0.1 0-3.8 1z m2.4-165.7l-0.9 15.2-6.7-0.8-1.7-0.1-3.5-8 12.8-6.3z" id="MDV5231" name="Alifu Alifu">
 </path>
 <path d="M141.3 3381.1l-3.7 1.7-2.8-1.7-0.1 0 0.6-1.3 1.7-1.4 0.9-2.1 0.2 0.1 1 2 1.9 1.4 0.4 1.3-0.1 0z m-36.1-5.1l-4.8 0-0.4-1.2 1.8-2 0.9-2.5 0.1 0.2 0.9 1.3 0.4 0.7 2.3 1.4 1.1 1.1-2.3 1z m107.8-28.9l-0.1 0.1 3.8-6.9 3.9-3 4.1-0.3 3.8 0.6-15.5 9.5z m31.6-67.4l-3.8 1.7-2.8-1.7 0.4-1.3 1.6-1.4 1.1-2.1 1.2 2.1 1.2 0.8 0.7 0.6 0.4 1.3z m-231.9-98.4l-2.6 3.6-2-1.2-2.5-1.6 0-2.7 1.7-2.5 0.9-3.2 0 0.2 1.4 3.2 2.3 2.2 0.9 2-0.1 0z m241.4-9.2l-3.5 1.7-2.8-1.6 0.3-1.4 1.7-1.4 1.2-2.1 1.2 2 1.9 1.4 0 1.4z m-6-35.9l-3.8 1.7-2.7-1.7 0.5-1.3 1.6-1.4 1.1-2.1 1.2 2.1 1.4 1 0.4 0.4 0.3 1.3z m-1.2-60.6l-3.7 1.7-2.7-1.7 0.4-1.3 1.6-1.5 1.2-2 1.1 2 1.8 1.5 0.3 1.3z" id="MDV5232" name="Alifu Dhaalu">
 </path>
 <path d="M206.2 3781.6l-4.3 0.5-0.4-1.2 1.2-2.3 0.8-3 1.2 1.9 1.8 0.5 1.1 0.8-1.4 2.8z m72.2-25.9l-3.3 2.2-2.9-1.4 0.2-1.4 1.4-1.8 1-2.3 0.1 0.1 1.1 1.8 1.9 1.4 0.5 1.4z m59.1-87.8l-4.1 0.4-0.4-1.2 1-2.3 0.9-3 1.1 1.8 0.1 0.1 2 0.5 1.1 0.8-1.7 2.9z m-8.8-45.7l-3.4 2.1-0.2-0.1-2.6-1.2 0.3-1.4 1.4-1.9 0.9-2.4 1.3 2 1.9 1.4 0.4 1.5z m-190.6-54.1l-0.2 0-0.1-1.2 1-2.3 0.9-3 1.1 1.9 2.1 0.5 0.9 0.8-1.5 2.9-4.2 0.4z" id="MDV5233" name="Faafu">
 </path>
 <path d="M808.6 2719.2l-10.5 27.1-10.8 11.3-14.6 8.6-22.4-1.9-9.6-4.2-42.5-15 0.9-5 74.6 3.4 8-4.5 5.2-15.6 6.7-21.8 12-11.2 6.3 5.8-0.8 7.9-2.5 15.1z" id="MDV5234" name="Malé">
 </path>
 <path d="M780.4 3520.4l0 0.2-2.5-4.4 2.2 1.8 0 0.2 0.3 2.2z m218.5-84.1l0.1 0.1-4.3-1.8-0.2-0.4-0.7-2.3 0.1 0.1 5 4.3z m-228.5-46.9l-2.1-1-0.1-0.1-0.2-3.3 2.4 4.4z" id="MDV5235" name="Vaavu">
 </path>
 <path d="M623.8 4068.5l-0.1 0-2.8-4.3 0.8-1.7 2.1-0.4 1.9-0.6-0.8 2.3 0.8 2 0 1.6-1.9 1.1z m44.6-14l-8.1 9.7 1.2-5.8 2.3-2.6 2.9-0.9 1.7-0.4z m141.8-98.1l-1.9 2.3 0-0.6-0.4-3.7 0.1 0.1 1.3 1.2 0.9 0.7z m-177.7-6.5l-0.1 0-3.2-2.1 0-1.3 1.7-1.1 1.1-1.4 0.7 2.2 1.2 1.6 0.4 1.3-1.8 0.8z m190-53.4l-2.1 7.9-0.7-2.2 0.5-1.8 2.3-4 0 0.1z m20.2-6.5l-7.8 9.7 0.9-5.8 2.6-2.6 2.7-1 1.6-0.3z" id="MDV5236" name="Meemu">
 </path>
 <path d="M208 4153.7l-1.8 3.7-3.1-0.5-0.6-1.3 0.2-2-0.6-2.3 2.3 1.1 2.5 0.2 1.1 1.1z m-30.6-3.8l0 0.1-5.9-2.9-0.4-2.1 2.7-2.1 2.6-2.8 1 9.8z m144.2-51l-2.5 0.6-2.8-3.8 9.2-3.2-3.9 6.4z m-12.3-195.7l-4.1 2-0.5-0.4-0.8-0.7 0-2.9-0.6-3.5 6 5.5z m-137.5-12.6l-2.4 2.6-0.2-2.6 4.9-7.7 0 0.1-2.3 7.6z" id="MDV5237" name="Dhaalu">
 </path>
 <path d="M332.6 4635.3l-1.3 0 5-1.7-2.3 1.6-1.4 0.1z m58.9-16.4l-0.5 1.1-2.7-0.9-0.5-2.5 0.8-0.9 1.9-0.1 1.9-0.9 0 0.1-0.9 2 0 2.1z m16.8-9l-5.5 0-0.9-1.6 0.9-2.8 0.5-3 5 7.4z m-181.9-126.9l0.8 10.7-4.1-3.3-0.2-2.3 1.8-2.2 1.7-2.9z m388.8-13.9l-0.3 0.2 1.9-5.5-0.1 0.6-0.3 3-1.2 1.7z m19-40l-0.1 0.2-8.1-41.2 0.3-7.7 6.7 11.7 3.7 10.1 0.8 2.2 0.8 12.7-4.1 12z m-44.3-101.9l0 0.1-1.4-1.1-1.8-1.5-0.3-2.3 1.6-2.7 1.5-3.4 0.4 10.9z" id="MDV5238" name="Thaa">
 </path>
 <path d="M646.5 4986.8l-5 5.7-2.2-0.4-1.1-3.5-1.8-4.1 10.1 2.3z m23.1-6.4l-5.8 0.7 0.4-3.7 0-0.1 1.8-2.5 2.1-2 1.2-2.6 0.1 0.2 0.8 4.2 1.8 3.4-1 2.3-1.4 0.1z m58.9-28.9l-6.4 5.6-2.5-0.2-0.7-2.9-0.6-2.9 10.2 0.4z m33.2-1.3l-0.3-0.3-0.3-0.3-0.4-0.4-0.3-0.4 2.2-2.6 2-2.7 4.7-3.2 9.9-4 0.2-0.1-6.8 5.4-10.9 8.6z m31.6-31.7l-0.5 1.5-0.9-3.2 0.9-2 0.6-0.7 1.2-1.1 2-2.4-0.2 0.4-3.1 7.5z m-262.7-28.7l-7.6 3.4 0.3-5 1.6-0.7 1.6 0.8 0.9 0.4 3.2 1.1z m270.4-0.5l-0.3 0.5 8.3-30.5 3.1-7-4 19.7-3 9.2-4.1 8.1z m8-68l0 0.1-2-2.6 0.2-2.1 2.1-5.4-0.3 10z m-211.6-19.5l-4.6 3.2-2.7-1.8 0.3-1.7 1.3-1.9 0.1-2.4 2.4 2.1 2.6 1.1 0.6 1.4z m206.4-37.5l-1.2 4.2-2.5-0.4 3.7-3.8z m6.7-43l-0.9-3 0.8-2.1 1.8-1.7 2.3-2.4-4 9.2z m15.2-34.9l16.6 0.3-1.8 1.4-2.9 2.2-11.9 7.5-5.5 2.8 0-3.8 1.1-3.3 4.4-7.1z" id="MDV5239" name="Laamu">
 </path>
 <path d="M775 6295.9l-4.5 6.6-2-4.1-0.5-1.1 0.7-1.5 2.9 0.3 3.4-0.3 0 0.1z m-20-112.2l2.5 8.2-4-1.6-0.6-1.8 1.2-2.2 0.9-2.8 0 0.2z m-98.3-119.3l-1.8-0.1-1.2-3.1 0.7-1.4 2-0.4 1.3-0.9-0.6 2.5 0 2.1-0.4 1.3z m-13.4-114.6l-0.5 1.4-0.9-0.2-0.9-0.2-1-3.2 0.9-1.1 1.6-0.5 1.4-0.9-0.6 2.5 0 2.2z m-19.8-77.2l-0.1 0.1-1.2-3.2 0.6-1.5 1.7-0.9 1.5-1 0 0.1-0.6 2.1 0 2-0.3 1.5-1.6 0.8z" id="MDV5240" name="Gaafu Alifu">
 </path>
 <path d="M391.6 6458.6l-0.1 0.1-3.7-2.8-1.4-3.1-0.1-0.5-0.6-3.2-1.1-4 3.2 2.8 3.4 2 1.7 3-1.3 5.7z m106.9-22.6l-4.4 5.3-1.6-0.1-0.6-3.3-1.3-4 8 2.1-0.1 0z m-165.4-20.3l0 0.1-3.9-1.5-0.3-1.1-0.4-1 0.4-1.4 0.4-1.4 0-0.3 0.5-3 3.3 9.6z m316.4-24.1l-8.8 4.9 1.4-5.6 2.4-0.9 2.5 0.8 2.6 0.8-0.1 0z m-367.1-13.4l-4.5-2.3-0.3-1.5 2.5-1.5 1.2 1.7 2 0.6 1 0.8-1.9 2.2z m-23.3-88.5l0.1 0.3-3.2-2.6-0.6-2.2 0.8-2.1 0.3-1.8 0.1 0.1 2.5 8.3z m-18.9-95.3l-0.3 8.4-3.3-3.9 0-2 3.6-2.5z" id="MDV5241" name="Gaafu Dhaalu">
 </path>
 <path d="M711.2 6936.1l-0.5 6.3-6.1-5.4-2.6-4.6-0.6-4.6 0.4-4.7 7.5 8.5 1.9 4.5z" id="MDV5242" name="Gnaviyani">
 </path>
 <path d="M478.9 7294.6l-4.7 1.4 0.8-5.2 2.7-2.6 8.4-3.1-2.7 3.7-1.9 3.3-2.6 2.5z m-67.4-23.5l2.5 9.5-2.9-1.5-0.5-2 0.5-2.6 0.4-3.4z m108.1-28.6l-11.8 16.2-0.5-9.6 3-8.7 4.5-3.6 4.8 5.7z m-113.3 14.7l-7 0-15.2-34.2-3.5-17.4 12.9-6.4 0 6.9-5.8 0.6-0.9 2.6 0.8 4.1-1.1 5 7 6.4 6.2 9.8 4.4 11.7 2.2 10.9z m119.6-49.2l-2 17.4-5.9-6.4-1.8-7.5 2.5-7.4 7.8-6.1 0.9 2.7-0.5 2.2-0.9 2.2-0.1 2.9z" id="MDV5243" name="Addu">
 </path>
 <circle cx="373.3" cy="7218.6" id="0">
 </circle>
 <circle cx="507.8" cy="7213.7" id="1">
 </circle>
 <circle cx="406.5" cy="382.9" id="2">
 </circle>
</svg>