<?xml version="1.0"?>
<!--
************* Copyright (c) 2017 Pareto Softare, LLC DBA Simplemaps.com *******************		
************* Free for Commercial Use, full terms at  http://simplemaps.com/resources/svg-license ************
************* Attribution is appreciated! http://simplemaps.com ***************************
-->
<svg baseprofile="tiny" fill="#7c7c7c" height="683" stroke="#ffffff" stroke-linecap="round" stroke-linejoin="round" stroke-width="2" version="1.2" viewbox="0 0 1000 683" width="1000" xmlns="http://www.w3.org/2000/svg">
 <path d="M991 1.5l-0.1 0.1-0.2-0.2 0-0.1 0.2-0.1 0.3 0-0.1 0.1-0.1 0.2z" id="NLD99" name="">
 </path>
 <path d="M981.4 40.2l0.2 0.1 0 0.3 0.1 0.2 0.2 0.2 0.5 0 0.3 0.2 0.1 0.8 0.2 0.2-0.1 0.2 0.1 0.1 0.1 0.1 0.2 0.1 0.2 0.4 0.1 0.2 0.2 0.6 0 0.2 0 0.2-0.2 0.2-0.3-0.3-0.1 0-0.7 0.2-0.3 0.1-0.2 0-0.5-0.2-0.5 0 0.2 1.3 0.3 1.2 0.5 0.7 0.3 0.6-0.8 0.7-0.4 0.1-0.9 0.3-1.3 0.4-0.3 0.4-0.1 0.1-0.2 0.4-0.1 0.7-0.1 0.2-0.1 0.1-0.1 0-0.1 0-0.3 0.1-0.2 0.1-0.1-0.1-0.1-0.5-0.1-0.4-0.2-0.3-0.3-0.2-0.3 0-0.3 0.1-0.5 0.4-0.3 0.1-1.5-0.1-0.5 0.2-0.3-0.1 0-0.7-0.2-0.3-0.3-0.1-0.5 0.1-0.2-0.1-0.1-0.2-0.1-0.5-0.1-0.1-0.4-0.5-0.1-0.2 0-0.5 0.2-0.3 0-0.4-0.2-0.5-0.4-0.3-0.1 0-0.2 0 0 0.2-0.1 0.2-0.1 0.2-0.2 0.4-0.3 0.4-0.3 0.3-0.3 0.1-0.5-0.2-0.3-0.1-0.9 0-0.3-0.2 0.1-0.2 0.2 0 0.5 0.2-0.1-0.3 0.1-0.4 0.1-0.3 0-0.3-0.2-0.2-0.2-0.1-0.2-0.1-0.2 0-0.5 0.2-1 1.3-0.1 0.1-0.2 0-0.2 0-0.4-0.1-0.4 0.1-0.2 0-0.2-0.2 0-0.2 0.1-0.3 0-0.3-0.1-0.2-0.1 0-0.4 0-0.7 0.3-0.7 0.4 0.1 0.2 0 0.1-0.1 0.2 0 0.2 0.1 0.2 0.3 0.4 0.1 0.2-0.1 0.3-0.2 0.2-0.7-0.1-0.2-0.1-0.5-0.2-0.1 0 0-0.2-0.1-0.1-0.1-0.1 0-0.4-0.1-0.3 0.1-0.1 0-0.1 0-0.3 0.2-0.1 0.2-0.5-0.1-0.4-0.3-0.4-0.4-0.2-0.1 0 0.2-0.4 0-0.1 0-0.3-0.1-0.2 0-0.1-0.4-0.4 0-0.4-0.2-0.2-0.1 0 0.2-0.4 0.5-0.2 0.6 0 0.7-0.2 0.5-0.4 0.4-0.7 1.4 0.2 0.5 0 0.4-0.1 0.6-0.3 0.3-0.1 0.4 0 0.7-0.8 0.2-0.3 0.2-0.4 0.4-0.2 0.7-0.1 0.4-0.1 0.5-0.4 0.3 0 0.7 0.1 0.3 0 0 0.3 0.3 0.2 0.4 0.4 0.4 0 0.1-0.1 0.5 0.4 0 0.3-0.2 0.4 0.2 0 2.4-0.3 0.2-0.1 0.3-0.2 0.1-0.3 0.1-0.3 0.1-0.4 0.3-0.2 0.5 0.1 0.3-0.1 0.2-0.2 0.3-0.1 0.2 0.1 0.2 0.1 0.9-0.1 0.6 0.1 0 0.1 0.2 0.4 0.1 0.1 0.3 0.1 0.9 0.6 1.4 0.1z" id="NLD3483" name="Noord-Brabant">
 </path>
 <path d="M974.5 29l0.2 0.2 0.6 0.3 0 0.2-0.1 0.6 0.1 0.1 0.5 0.4-0.1 0.2 0 0.1-0.1 0.1 0 0.1 0.1 0.1 0.3 0.1 0.2 0.1 0.1 0 0.2 0.2 0.1 0.1 0.2 0.2-0.1 0.1 0 0.1 0 0.3-0.1 0-0.2 0.2 0 0.2-0.1 0.2-0.1 0.1 0.4 0.2 0.1 0 0.1-0.1 0.1 0 0.1-0.1 0.1-0.1 0-0.2 0-0.2 0.2 0 0.1 0.4 0 0.3 0 0.5 0.1 0.6 0.2 0.3 0.3 0.3 0.1 0.3 0.1 0.2 0 0.3-0.1 0.1-0.4-0.1-1.1-0.6-0.5-0.1-0.2 0-0.2 0.2-0.2 0.1-0.1 0-0.4-0.1-0.3 0-0.3 0.3-0.3 0.1-0.8-0.4-0.2 0-0.2 0.2-0.3 0.1-0.2-0.1-0.1 0-0.3-0.1-0.1-0.2-0.2-0.3-0.2-0.1-0.1 0-0.2 0-0.1 0.1-0.3 0.1-0.1 0.1-0.2 0.2-0.1 0.1-0.6-0.1-0.4 0.2-0.4 0.4-0.1 0.1-0.3 0-0.1 0.1-0.3-0.5-0.4-0.5-0.1-0.2 0-0.1 0.2 0 0.2-0.1-0.1-0.3-0.6 0.1-0.1-0.2 0.5-0.6 0.5-0.3 0.1-0.1-0.6 0-0.2-0.8-0.2-0.1-0.2-0.1 0.4-0.5 0.2 0 0.3 0.2 0.1-0.1 0-0.1-0.1-0.2 0-0.3 0.1-0.1-0.7-0.5-0.3-0.1-0.1-0.2-0.2-0.3 0.6-0.2 0.3-0.1 0.2-0.3 0.3-0.1 0.5-0.1 0.2-0.3 0.1-0.1 0.1 0 0.3 0 0.3-0.2 0.1 0 0.1 0.1 0.1 0.1 0.2-0.1 0.6 0-0.5 0.2 0 0.1 0 0.1 0.1 0.2 0.1 0.1 0.1 0.1 0.1 0.1-0.3 0.3-0.1 0.4 0.1 0.4 0.1 0.4 0.3-0.1 0.3-0.1 0.5-0.1 0.7 0.1 0.3-0.2 0-0.2 0.2-0.4 0.1-0.2 0.2-0.7 0.3-0.4 0.1-0.1 0.8 0 0.1 0z" id="NLD3484" name="Utrecht">
 </path>
 <path d="M966.9 30.3l0.2 0.3 0.1 0.2 0.3 0.1 0.7 0.5-0.1 0.1 0 0.3 0.1 0.2 0 0.1-0.1 0.1-0.3-0.2-0.2 0-0.4 0.5 0.2 0.1 0.2 0.1 0.2 0.8 0.6 0-0.1 0.1-0.5 0.3-0.5 0.6 0.1 0.2 0.6-0.1 0.1 0.3-0.2 0.1-0.2 0 0 0.1 0.1 0.2 0.4 0.5 0.3 0.5 0.1-0.1 0.3 0 0.1-0.1 0.4-0.4 0.4-0.2 0.6 0.1 0.1-0.1 0.2-0.2 0.1-0.1 0.3-0.1 0.1-0.1 0.2 0 0.1 0 0.2 0.1 0.2 0.3 0.1 0.2 0.3 0.1 0.1 0-0.3 0.7-0.1 0.1-0.5 0.9 0.1 0.2 0 0.1-0.2 0.1-1 0.4-0.4 0 0.1 0.2 0 0.2 0 0.2-0.3 0-0.7-0.1-0.3 0-0.5 0.4-0.4 0.1-0.7 0.1-0.4 0.2-0.2 0.4-0.2 0.3-0.7 0.8-0.4 0-0.3 0.1-0.6 0.3-0.4 0.1-0.5 0-1.4-0.2-0.4 0.7-0.5 0.4-0.7 0.2-0.6 0-0.5 0.2-0.3-0.1-0.3-0.2-0.3-0.2-0.2 0.2-0.1 0.1 0-0.1 0-0.2 0.1-0.2 0.1-0.2 0.3-0.1 0.4-0.1-0.1-0.1-0.4-0.2-0.9-0.3-0.2-0.3 0-0.7-0.3-0.4-0.3-0.3-0.4-0.3-0.2 0.2-0.3 0.1-0.4 0-0.2 0.1-0.1 0.1-0.2 0-0.1-0.6 0.4-0.3 0.8-0.2 0.1-0.2 0.3 0 0.4 0.1 0.4 0.2 0.1 0 0.1-0.1 0.2-0.1-0.1-0.2-0.3-0.5-0.2-0.1 0-0.2 0-0.1 0.2-0.3-0.1-0.3-0.2-0.9-0.2-0.3 0.1-0.2 0.1-0.1 0.6 0.1 0.5-0.1 0.5-0.3 1.8-2.3 1.7-2.4 1.2-2.2 0.6 0.3 0.3 0.1 0.2-0.2 0.3 0.1-0.5 0.9-0.1 0.2 0 0.2 0 0.2-0.2 0.3 0 0.2 0.2 0 0.1 0.1 0.2 0.1 0.3-0.1 0.5-0.1 0.3-0.1 0.6-0.2 0.1 0.1 0 0.3 0.1 0.1 0.1 0.1 0.4-0.3z" id="NLD3485" name="Zuid-Holland">
 </path>
 <path d="M974.5 29l-0.1 0-0.8 0-0.1 0.1-0.3 0.4-0.2 0.7-0.1 0.2-0.2 0.4 0 0.2-0.3 0.2-0.7-0.1-0.5 0.1-0.3 0.1-0.3 0.1-0.1-0.4-0.1-0.4 0.1-0.4 0.3-0.3-0.1-0.1-0.1-0.1-0.1-0.1-0.1-0.2 0-0.1 0-0.1 0.5-0.2-0.6 0-0.2 0.1-0.1-0.1-0.1-0.1-0.1 0-0.3 0.2-0.3 0-0.1 0-0.1 0.1-0.2 0.3-0.5 0.1-0.3 0.1-0.2 0.3-0.3 0.1-0.6 0.2-0.4 0.3-0.1-0.1-0.1-0.1 0-0.3-0.1-0.1-0.6 0.2-0.3 0.1-0.5 0.1-0.3 0.1-0.2-0.1-0.1-0.1-0.2 0 0-0.2 0.2-0.3 0-0.2 0-0.2 0.1-0.2 0.5-0.9-0.3-0.1-0.2 0.2-0.3-0.1-0.6-0.3 0.1-0.2 0.8-2.4 0.1-0.6 0-0.1 0.3-0.6 0.5-4.2 0.3-1.1 0-0.3 0.1-0.7 0.6-1.5 0.1-0.7 0-0.4 0.1-0.5 0.1-0.5 0.1-0.2 0.8 0.2 0.2-0.2 0.1 0.2-0.2 0.7 0.3 0.4 0.5 0.1 0.5 0 0.3-0.2 0.6-0.5 0.3-0.1 0.5 0 0.5-0.3 1.4-1.2 0.1 0.4-0.8 0.7-0.6 0.4-0.5 0.2 0.2 0.2 0.7 1.4 0.1 0.5 0 1.3 0.2 0.3 0.1 0.1 0.2 0.2 0.1 0.1 0.2-0.1 0.2-0.2 0.1-0.1 0.2 0 0.2 0 0.7 0.3 0.1 0.2 0 0.2 0.1 0.3 0 0.2-0.4 0.3-0.2 0.1-0.2 0.6-0.2 0.2-0.8 0.5-0.2 0.1-0.2 0-0.2-0.2-0.1-0.1-0.4-0.1-0.5 0.1-0.2 0.3 0.1 0.6 0.1 0.6 0.5 1 0.1 0.5-0.3 0.3 0.1 0.1 0 0.2-0.1 0-0.3 0.2 0.2 0.1 0.1 0.2 0.1 0.2 0.2 0.1-0.1 0.2-0.1 0.2-0.2 0.1-0.1 0-0.2 0.2-0.1 0.4-0.1 0.2-0.2-0.2 0 0.2-0.1-0.1-0.1 0-0.2-0.1 0 0.2-0.1 0 0 0.1 0.8 0.5 0.2 0.1 0.6 0.1 0.3 0.1 0.6 0.4 0.3 0.1 0.3 0.1 0.6-0.1 0.2 0 1 0.7z m-5.9-18.1l0 0.1 0.2 0-0.1 0.3-0.1 0.4-0.4 0.5-0.6 0.5-0.3 0.6-0.5 0.2-0.4-0.2-0.3-0.6 0.1-0.6 0.3-0.6 0.3-0.6 0.6-0.5 0.3-0.7 0.4-0.5 0.4 0 0.1 0.3-0.1 0.1 0 0.1 0.2 0.3 0.1 0.4 0 0.3-0.2 0.2z" id="NLD3486" name="Noord-Holland">
 </path>
 <path d="M69.5 605.5l-0.1 0-0.2-0.1 0-0.2 0.2-0.1 0.1 0.1 0 0.1 0 0.2z" id="NLD5147" name="Saba">
 </path>
 <path d="M73.2 607.5l-0.2 0.1-0.3 0-0.1-0.4-0.1-0.4 0.2 0.1 0.1 0.2 0.2 0 0.2 0.2 0 0.2z" id="NLD5148" name="St. Eustatius">
 </path>
 <path d="M3.4 681.9l-0.1 0.1-0.1 0-0.1-0.1-0.3-0.6-0.1-0.2 0-0.3 0.1-0.4 0-0.3-0.1-0.2-0.2-0.3-0.2-0.2-0.7-0.1-0.3-0.1-0.2-0.1-0.1-0.3 0.2-0.2-0.1-0.1 0-0.2 0.1-0.1 0.2-0.1 0.1 0 0.2 0.1 0.3 0.4 0.1 0.1 0.3 0 0.8 0.4 0.4 0.1 0.1 0 0.2 0.2 0.1 0.1-0.2 0.1-0.1 0.1 0.1 0.7 0 0.3-0.1 0.1-0.3 0 0 0.1 0 0.1 0.1 0.4 0 0.1 0 0.1-0.1 0.2 0 0.1z" id="NLD5149" name="Bonaire">
 </path>
 <path d="M997.3 16.8l-0.1 0.4-0.1 0.7-0.1 2.4-0.1 0.7-0.3 0.5-0.4-0.1-0.2-0.1-0.7 0.1-0.7-0.2-1.2 0-0.5 0.1-0.2 0.2-0.2-0.1 0-0.2 0-0.1-0.1-0.2-1-0.4-0.2 0-0.3 0.1-0.7 0.3-0.1 0.2-0.1 0.1 0.1 0.6-0.6-0.2-0.2-0.1 0 0.1-0.1 0.1-0.1 0-0.1-0.1-0.1-0.1-0.1 0-0.1 0.1-0.3 0.1-0.2-0.1-0.1-0.3-0.1-0.1-0.2-0.3-0.2-0.1-0.1-0.2-0.1 0-0.6 0-0.1 0-0.4-0.3-0.2-0.1-0.1 0-0.2 0.2-0.2-0.1-0.1-0.1-0.1-0.1 0-0.1-0.5-1.2 0.1-0.2 0.4-0.2 0.5-0.4 0-0.2-0.1-0.2-0.1-0.2-0.1-0.1-0.7-0.8 1.1-0.8 0.4-0.5 0.1-0.1 0.2-0.1 0.3 0 0.3 0 0.5 0.3 0.6-0.4 0.1-0.1 0.3-0.6 0.1-0.2-0.2-0.3-0.7-1 0-0.2-0.1-0.3 0-0.1 0-0.2-0.4-0.1-0.2-0.2-0.1 0 0.1-0.3 0.2 0.1 0.1-0.1 0.3-0.4 0-0.2 0.1-0.1 0.1-0.4 0.1-0.1 0.1-0.2 0.2-0.3 0.1-0.2 0.3-0.1 0.5-0.5 0.4 0.2 0.2 0.1 0.2 0 0.2 0.3 0.2 0.4 0.1 0.1 0.2 0.1 0.4 0.6 0.2 0.3 0 0.1 0.9-0.3 0.4 0 0.2 0.2 0.4 0.5 0.6 0.6 0.6 0.6 0.9 1 0.6 0.8 0.7 0.8 0.1 0.1 0 0.1-0.3 0.8 0.3 0.1 0.1 0.1 0.3 0.3 0 0.1z" id="NLD894" name="Drenthe">
 </path>
 <path d="M969.1 8.4l-0.3 0.3-0.4-0.2 0.5-0.8 0.9-0.8 0.9-0.5 0.7 0.1 0 0.2-0.4 0-0.2 0.1-0.3 0.1-1.1 1-0.3 0.5z m18.2 2.9l-0.1 0.3 0.1 0 0.2 0.2 0.4 0.1 0 0.2 0 0.1 0.1 0.3 0 0.2 0.7 1 0.2 0.3-0.1 0.2-0.3 0.6-0.1 0.1-0.6 0.4-0.5-0.3-0.3 0-0.3 0-0.2 0.1-0.1 0.1-0.4 0.5-1.1 0.8-0.6 0.3-0.2 0-0.2 0.1-0.1 0 0 0.1-0.2 0.3-0.5-0.1-0.1 0-0.1-0.1-0.2-0.3-0.1 0 0 0.1-0.3 0-0.1 0.1-0.1 0.2-0.1 0.1-0.4 0.3-0.2 0-0.4-0.1-0.2-0.1-0.5 0.2-0.1-0.3-0.3-0.4-0.1 0-0.3 0-0.1-0.1-1-0.3-0.2 0-0.2 0.1-0.3 0.2-0.1 0.1-0.3 0-0.2 0-0.3-0.3-0.1 0-0.9 0-0.4-0.1-0.3-0.3-0.1-0.1-0.1-0.1-0.1-0.1 0-0.3 0.1 0 0.1-0.1 0.1-0.2 0.2-0.1 0.1-0.2-0.1-0.4 0.2-0.2 0-0.4 0-0.3-0.2-0.3 0.1-0.2 0-0.3 0-0.3-0.1-0.1-0.2-0.2-0.1-0.2-0.1-0.5-1.1 0.8-1.3 1.1-0.1-0.4 1.3-1.2 0.2-0.2 0.2-0.2 0.6-0.1 0.3-0.2 0.3-0.6 0.3-1.5 0.3-0.6 0.5-0.6 0.2-0.2 0.5-0.2 0.2-0.3 0.3-0.3 0.2-0.2 0.3-0.1 0.6-0.1 0.5-0.4 2.1-0.9 0.4-0.3 0.3-0.1 0.9-0.4 1.3-0.1 1.4 0-0.1 0.3-0.1 0.2 0.2 0.5 0.1 0.1 0.3 0.1 0.1 0 0.1 0.2 0.1 0 0.1 0 0.2 0 0.2 0 0 0.1 0.1 0.1-0.1 0.3 0 0.2 0.2 0.1-0.1 0.1-0.2 0.2-0.2 0.2 0 0.1-0.1 0.3-0.2 0.3-0.1 0.3 0 0.2 0.1 0.2-0.1 0.2-0.5 0.6-0.1 0.3-0.1 0.5 0.1 0.4 0.1 0.2 0.2 0.2 0.1 0 0.5 0 0.3 0.1 0.5 0.3 0.1 0.1z m-11.7-6.9l-0.6 0.2-0.4 0.1-1.9 0.9-0.3-0.1-0.2-0.3 0.1-0.4 0.8-0.2 0.2-0.2 0.3 0 1.8-0.4 0.4-0.3 1.9-0.4-0.3 0.4-0.4 0.2-0.7 0 0 0.3-0.1 0.1-0.6 0.1z m6.4-1.5l0.6 0.3-1.3 0.3-1.4 0-0.3 0-0.7 0.3-0.3 0-0.2-0.4 0.1-0.3 0.2-0.2 0.2 0.1 3.1-0.1z m3.2 0.1l-0.3 0.3 0-0.1 0-0.1 0-0.1-0.1-0.3 0.3-0.3 0.5-0.2 0.4-0.1 1.3-0.1 0.4 0.1 0 0.1-0.2 0-2.3 0.8z" id="NLD895" name="Friesland">
 </path>
 <path d="M993.4 32.7l-0.1 0-0.2 0.1-0.2 0.3-0.1 0.1-0.1 0.3-0.1 0.1-0.2 0.1-0.1 0-0.1 0-0.1 0.3 0 0.3 0.2 0.1 0.3 0.1 0.9 0.5 0.3 0.4 0.1 0.1 0 0.1 0 0.3-0.1 0-0.1 0.1-0.1 0.1-0.3 0.5-0.3 0.4-0.4 0.2-1.1 0-1.3 0.5-0.7 0.5-0.2 0.1-0.3 0-0.8-0.3 0.1 0.5-0.1 0.2-0.5 0.2 0-0.4-0.2-0.1-0.5-0.1-0.1 0-0.1-0.3-0.1-0.1-0.1 0-0.4 0.1-0.5-0.2-0.4-0.4-0.4-0.2-0.5 0.3 0.2 0.1 0.5 0.5 0.1 0.3-0.5-0.1-0.4-0.1-0.5 0.1-0.2 0.1-0.3 0.2-0.3 0.1-0.5 0.1-0.2 0.2-0.1 0.2 0.3 0.2 0.2 0.4 0 0.4-0.2 0.3-0.1 0-0.3-0.2-0.1-0.1-0.3-0.4-0.1 0-0.1 0-0.1 0.1 0 0.3-1.4-0.1-0.9-0.6-0.3-0.1-0.1-0.1-0.2-0.4 0-0.1-0.6-0.1-0.9 0.1-0.2-0.1-0.2-0.1-0.3 0.1-0.2 0.2-0.3 0.1-0.5-0.1-0.3 0.2-0.1 0.4-0.1 0.3-0.1 0.3-0.3 0.2-0.2 0.1-2.4 0.3-0.2 0 0.2-0.4 0-0.3-0.5-0.4-0.1 0.1-0.4 0-0.4-0.4-0.3-0.2 0-0.3 0-0.2 0-0.2-0.1-0.2 0.4 0 1-0.4 0.2-0.1 0-0.1-0.1-0.2 0.5-0.9 0.1-0.1 0.3-0.7 0.2 0.1 0.3-0.1 0.2-0.2 0.2 0 0.8 0.4 0.3-0.1 0.3-0.3 0.3 0 0.4 0.1 0.1 0 0.2-0.1 0.2-0.2 0.2 0 0.5 0.1 1.1 0.6 0.4 0.1 0.1-0.1 0-0.3-0.1-0.2-0.1-0.3-0.3-0.3-0.2-0.3-0.1-0.6 0-0.5 0-0.3-0.1-0.4-0.2 0 0 0.2 0 0.2-0.1 0.1-0.1 0.1-0.1 0-0.1 0.1-0.1 0-0.4-0.2 0.1-0.1 0.1-0.2 0-0.2 0.2-0.2 0.1 0 0-0.3 0-0.1 0.1-0.1-0.2-0.2-0.1-0.1-0.2-0.2-0.1 0-0.2-0.1-0.3-0.1-0.1-0.1 0-0.1 0.1-0.1 0-0.1 0.1-0.2-0.5-0.4-0.1-0.1 0.1-0.6 0-0.2 0.6 0 1.1-0.2 0.2-0.2 0.4-1 0.6-0.7 0.4-0.4 0.8-0.2 0.4-0.2 0.5-0.4 0.3-0.3 0.5-0.7 0.2-0.5 0.2-0.5 0-0.4 0.2 0 0.2 0.3 0.3 0.5 0.1 0.1 0.1 0 0.4-0.1 0.4-0.4 0.4-0.2 0.2 0.1 0.1 0.2 0.1 0.2 0.3 0.2 0.1 0.1 0 0.1 0.2 0.4 0.1 0.2 0.2 0.4 0.1 0.2 0 0.2-0.2 0.5-0.5 0.2 0 0.2 0 0.1-0.1 0.2-0.1 0.4 0 0.2 0 0.1 0.2 0.3 0.3 0.1 0.2 0.6 0 0.3 0.2 0.1 0.1 0.1 0 0.1 0 0.2 0 0.1 0.1 0.1 0.1 0 0.1-0.2 0.2-0.1 0.1 0 0.9 0.2 0.8 0 0.2 0 0.2-0.2 0.4-0.2 0.4 0.1 0.1 0.1 0.6 1 0.4 0.3 0.3 0 0.5 0 0.4 0 0.2 0 0 0.1 0 0.2 0.1 0 0.5-0.1 0.1 0 0.2 0.1 0 0.1 0 0.4-0.1 0.3 1.3 0.3 0.2 0.1z" id="NLD896" name="Gelderland">
 </path>
 <path d="M997.3 16.8l0-0.1-0.3-0.3-0.1-0.1-0.3-0.1 0.3-0.8 0-0.1-0.1-0.1-0.7-0.8-0.6-0.8-0.9-1-0.6-0.6-0.6-0.6-0.4-0.5-0.2-0.2-0.4 0-0.9 0.3 0-0.1-0.2-0.3-0.4-0.6-0.2-0.1-0.1-0.1-0.2-0.4-0.2-0.3-0.2 0-0.2-0.1-0.4-0.2-0.5 0.5-0.3 0.1-0.1 0.2-0.2 0.3-0.1 0.2-0.1 0.1-0.1 0.4-0.1 0.1 0 0.2-0.3 0.4-0.1 0.1-0.2-0.1-0.1-0.1-0.5-0.3-0.3-0.1-0.5 0-0.1 0-0.2-0.2-0.1-0.2-0.1-0.4 0.1-0.5 0.1-0.3 0.5-0.6 0.1-0.2-0.1-0.2 0-0.2 0.1-0.3 0.2-0.3 0.1-0.3 0-0.1 0.2-0.2 0.2-0.2 0.1-0.1-0.2-0.1 0-0.2 0.1-0.3-0.1-0.1 0-0.1-0.2 0-0.2 0-0.1 0-0.1 0-0.1-0.2-0.1 0-0.3-0.1-0.1-0.1-0.2-0.5 0.1-0.2 0.1-0.3 1.2-0.1 0.1 0.1 0.3 0.2 0.1 0 0.1 0 0.3-0.3 2-0.5 3.1-0.5 1.3 0.2 0.3 0.1 0.2 0.3 0.5 1.8 0.4 0.2 0.1 0.2 0.1 0.1 0.4 0.2 0.5 0.3 0.3-0.1 0.1 0.1 0.1 0.1 0.2-0.1 0.1-0.1 0.1 0 0 0.2-0.1 0.1 0 0.1 0 0.2 0 0.4 0.4 0.2 1 0.2 0.1 0 0.1 0.7 0 0.3 0 0.4-0.1 0.3-0.2 0.5-0.1 0.2 0.1 0.3 0 0.1 0.1 0.1 0 0.2 0.1 1.6 0 0.8-0.1 0.7-0.3 0.7-1.1 1.7-0.1 0.3z m-8.1-15.8l0.7 0.3-0.1 0-0.1 0.2-0.4-0.2-0.3-0.1 0-0.2 0.2 0z" id="NLD897" name="Groningen">
 </path>
 <path d="M982.4 40.5l0 0.3 0.1 0 0.4 0 0.1 0.1 0.3 0.2 0.2 0.1-0.2 0.6 0.3 0.4 0.9 0.4-0.2 0.5 0 0.3 0 0.3 0.9 1.2 0.5 0.6 0.1 0.7 0.1 0.4-0.1 0.4-0.1 0.5 0 0.3 0.2 0.3-0.1 0.2 0 0.4-0.1 0.3-0.1 0.2-0.3 0.2-0.2 0.2-0.6 1.2-0.3 0.3-0.2 0.3-0.1 0.4 0 0.5 0.1 0.4 0.3 0.1 0.7-0.4 0.3 0.1-0.2 0-0.3 0.3 0.3 0.3-0.2 0.2-0.7 0.4-1.2 1-0.2 0.2-0.3 0.5-0.1 0.2-0.3 0-0.2-0.1-0.1-0.2-0.2-0.1-0.4 0.2 0.1 0.4 0.2 0.7 0 0.5 0.2-0.1 0.3-0.1 0.2-0.1 0.2 0 0.4 0.2 0.4-0.1 0.1 0.1-0.1 0.2-0.1 0.2 0 0.3 0.1 0.1 0.1 0.1 0.3 0.2 0.4 0.2 0 0.1-0.1 0.1 0 0.1 0.1 0.5 0 0.1-0.1 0.2-0.1 0.2-0.3 0-0.2 0.1-0.1 0.2 0 0.4 0 0.2-0.2 0.2-0.2 0 0 0.2 0.1 0.2 0.2 0.1 0 0.1 0 0.3-0.3 0-0.9 0-0.3-0.1-1.1 0-0.2-0.1-0.3-0.3-0.1 0-0.1 0.1-0.2 0.3-0.1 0-0.2 0-0.2-0.1 0.1-0.5 0-0.3-0.2 0-0.3-0.2-0.3-0.2-0.2-0.3 0-0.5 0.9-1 0.4-0.1 0-0.1 0.2-0.3 0.2-0.4 0.2-0.3-0.2-0.1-0.1 0-0.3 0.1 0.5-0.8 0.2-0.5-0.1-0.3 0-0.3 0.1-0.2 0.1 0 0.1 0.1 0.1-0.1 0.1-0.2 0.1-0.3-0.1-0.1 0-0.2 0.2 0 0.1 0 0.1 0 0.1-0.1-0.3-0.3 0.1-0.3 0.2-0.2-0.1-0.1-0.1-0.2-0.2-0.1-0.4 0.1-0.2-0.1-0.3-0.4-0.2-0.1-0.1 0-0.6 0.1-0.2 0-0.2-0.1-0.1-0.2-0.2-0.1-0.7-0.2-0.2-0.2 0.2-0.1 0.3-0.1 0.1 0 0.1 0 0.1-0.1 0.1-0.2 0.1-0.7 0.2-0.4 0.1-0.1 0.3-0.4 1.3-0.4 0.9-0.3 0.4-0.1 0.8-0.7-0.3-0.6-0.5-0.7-0.3-1.2-0.2-1.3 0.5 0 0.5 0.2 0.2 0 0.3-0.1 0.7-0.2 0.1 0 0.3 0.3 0.2-0.2 0-0.2 0-0.2-0.2-0.6-0.1-0.2-0.2-0.4-0.2-0.1-0.1-0.1-0.1-0.1 0.1-0.2-0.2-0.2-0.1-0.8-0.3-0.2-0.5 0-0.2-0.2-0.1-0.2 0-0.3-0.2-0.1 0-0.3 0.1-0.1 0.1 0 0.1 0 0.3 0.4 0.1 0.1 0.3 0.2z" id="NLD898" name="Limburg">
 </path>
 <path d="M992.7 21.5l-0.3 0.2 0.2 0.2-0.1 0.2 0 0.2 0 0.1 0.1 0.2 0.4 0.3-0.7 0.4-0.3 0 0.2 0.4 0.1 0.4 0 0.3 0.1 0.4 0.2 0.3 0.4 0.1 1 0.2 0.7 0.3 0.4 0 0.3 0 0.3-0.1 0.2-0.1 0-0.2 0.1 0 0.8 1.3 0.2 0.6-0.1 0.8-0.3 0.6-0.1 0.3 0 0.4 0.2 0.5 0.1 0.2-0.1 0.1-0.6 0.3-0.1 0.2-0.3 0.5-0.3 0.2-0.5 0.3-0.3 0.3-0.3 0.6-0.2 0.1-0.7 0.1-0.2-0.1-1.3-0.3 0.1-0.3 0-0.4 0-0.1-0.2-0.1-0.1 0-0.5 0.1-0.1 0 0-0.2 0-0.1-0.2 0-0.4 0-0.5 0-0.3 0-0.4-0.3-0.6-1-0.1-0.1-0.4-0.1-0.4 0.2-0.2 0.2-0.2 0-0.8 0-0.9-0.2-0.1 0-0.2 0.1-0.1 0.2-0.1 0-0.1-0.1 0-0.1 0-0.2 0-0.1-0.1-0.1-0.2-0.1 0-0.3-0.2-0.6-0.3-0.1-0.2-0.3 0-0.1 0-0.2 0.1-0.4 0.1-0.2 0-0.1 0-0.2 0.5-0.2 0.2-0.5 0-0.2-0.1-0.2-0.2-0.4-0.1-0.2-0.2-0.4 0-0.1-0.1-0.1-0.3-0.2-0.1-0.2-0.1-0.2-0.2-0.1-0.4 0.2-0.4 0.4-0.4 0.1-0.1 0-0.1-0.1-0.3-0.5-0.2-0.3-0.2 0 0-0.4-0.2-0.8-0.1-0.4-0.1-0.2 0.7-0.4 0.2 0 0 0.1 0.3 0 0.1 0 0.6-0.2 0.4-0.2-0.2-0.4-0.3-0.1-0.5-0.2-0.2-0.1 0.1-0.1 0.1-0.1 0.1-0.2-0.1-0.5-0.2-0.6-0.1-0.1-0.2-0.2-0.6-0.5-1-0.6 0.5-0.2 0.2 0.1 0.4 0.1 0.2 0 0.4-0.3 0.1-0.1 0.1-0.2 0.1-0.1 0.3 0 0-0.1 0.1 0 0.2 0.3 0.1 0.1 0.1 0 0.5 0.1 0.2-0.3 0-0.1 0.1 0 0.2-0.1 0.2 0 0.6-0.3 0.7 0.8 0.1 0.1 0.1 0.2 0.1 0.2 0 0.2-0.5 0.4-0.4 0.2-0.1 0.2 0.5 1.2 0 0.1 0.1 0.1 0.1 0.1 0.2 0.1 0.2-0.2 0.1 0 0.2 0.1 0.4 0.3 0.1 0 0.6 0 0.1 0 0.1 0.2 0.2 0.1 0.2 0.3 0.1 0.1 0.1 0.3 0.2 0.1 0.3-0.1 0.1-0.1 0.1 0 0.1 0.1 0.1 0.1 0.1 0 0.1-0.1 0-0.1 0.2 0.1 0.6 0.2-0.1-0.6 0.1-0.1 0.1-0.2 0.7-0.3 0.3-0.1 0.2 0 1 0.4 0.1 0.2 0 0.1 0 0.2 0.2 0.1z" id="NLD899" name="Overijssel">
 </path>
 <path d="M981.1 22.7l0.2 1 0 0.4-0.2 0.6-0.2 0.4-0.3 0.4-0.3 0.4-0.4 0.1-0.4 0.1-0.6 0.3-0.3 0-0.2 0.1-0.3 0.4-0.2 0.1-0.2 0.1-0.2 0-0.3 0.2 0.1 0.7-0.1 0.5-0.3 0.4-0.5 0.2-0.8 0-0.4-0.1-0.8-0.6-0.4-0.3-0.9-0.3-0.2-0.1-0.6 0.1-0.3-0.2-0.1-0.2 0-0.3-0.2-0.4 0.3-0.1 0.3-0.4 0.9-0.4 0.5-0.6 1-0.4 0.6-0.5 0.5-0.2 0.2-0.2 0.3-0.8 0.1-0.1 0.3 0 0.1 0 0.6-0.6 0.2-0.1 0.8-0.3 0.2-0.2 0.4 0.4 2.1 0.5z m-0.8-5.1l1 0.6 0.6 0.5 0.2 0.2 0.1 0.1 0.2 0.6 0.1 0.5-0.1 0.2-0.1 0.1-0.1 0.1 0.2 0.1 0.5 0.2 0.3 0.1 0.2 0.4-0.4 0.2-0.6 0.2-0.1 0-0.3 0 0-0.1-0.2 0-0.7 0.4-0.2-0.2-0.2 0-1.8 0.1-0.2-0.1-0.1-0.1-0.3-0.6-0.2-0.2-0.2-0.3 0-0.9 0-0.9 0.2-0.5 0.2-0.6 0.3-0.4 0.4-0.3 0.4-0.1 0.1 0 0.3 0 0.1 0 0.3 0.4 0.1 0.3z" id="NLD902" name="Flevoland">
 </path>
 <path d="M959.7 48.5l0 0.1-0.1 0.5-0.1 0.2-0.5 0.7-0.6 0.5-1.7 0.8-0.6 0.5-0.3 0.1-1.5 0-0.2 0-0.2-0.3 0-0.2 0-0.2-0.1-0.3-0.2-0.2-1.6-0.5-0.4-0.1-0.3 0.1-0.5 0.1-0.2 0-0.2 0-0.2 0.2 0 0.2 0 0.3 0 0.2-0.6 0.1-0.4-0.1-0.4-0.1-0.4-0.4-0.2-0.5 0.1-0.5 0-0.5-0.1-0.9 2.1-0.6 0.2-0.2 0.2 0 0.9 0.5 1.3 0.4 0.4 0.4 0.3 0.1 0.5 0 0.5 0.1 0.3 0 1.3-0.6 0.2-0.2 0.1-0.4 0.1-0.2 0.3 0 0.3 0.1 0.2 0.2 0 0.1 0.2 0.3 0.1 0.1 0.2 0.1 0.3 0 0.1 0.1 0.1 0.1 0.5 0 0.2-0.3 0.1-0.1 0.2 0 0.3 0.2z m0.1-3.2l-0.4-0.1-0.6-0.2-0.2-0.1-0.4 0.1-0.2 0-0.3-0.2-1.1-1 0.7-0.4 0.4 0 1.2 0 0.3 0.1 0.3 0.3 0.4 0.4 0 0.1 0.1 0.2 0 0.3 0 0.1-0.2 0.4z m0.5 1.6l0 0.3 0 0.1-0.1 0.1 0.1 0.3 0 0.4 0.1 0.1 0.1 0.1 0 0.2-0.3 0 0-0.1-0.1-0.2-0.1-0.3 0-0.2 0-0.2-0.1-0.1-0.2 0.2-0.3 0.1-1.1 0-0.3-0.1-0.3-0.2-0.7-0.6-0.2-0.1-0.6-0.1-0.2 0.2-0.4 0.7-0.1 0.2-0.2 0.1-0.5 0.1-0.2 0.1-0.1 0-0.1-0.1-0.4-0.3-0.8-0.4-0.5-0.5-0.2-0.1-0.6 0.3-0.3 0-0.7-0.2-0.2-0.1-0.2-0.3-0.2-0.4-0.2-0.2-0.4-0.4-0.2-0.2 0-0.4 0.1-0.2 1.4-0.8 3.5-0.4 0.3 0 0.2 0.2 0.2 0.2 0.2 0.2 0.1 0.3-0.1 0.1-0.2 0.1-0.1 0.1 0 0.2 1.3 0.1 0.6 0.2 0.5 0.5 0.2 0.4 0.3 0.7 0.2 0.3 0.3 0 0.7-0.1 0.2 0.2 0.3-0.1 0.4 0 0.2 0z m-0.9-4.1l-0.2 0.4-0.5 0-0.1-0.1-0.2 0-0.1-0.2 0-0.2-0.1-0.1 0.1-0.1 0.2-0.2 0.3 0.2 0.3 0.2 0.3 0.1z m-2.4-1.4l0.1 0.2 0.2 0.1 0.5 0.2 0.3 0.2 0 0.3-0.1 0.2-0.3 0.2-0.2 0.1-1 0.2-0.2 0-0.5-0.2-0.3-0.2-0.1-0.3-0.1-0.3-0.2-0.1-0.6-0.3-0.1-0.2-0.1 0-0.2-0.1-0.3 0.4-0.1 0.1-0.6 0-0.3 0-0.1-0.3 0-0.7 0.5-0.3 1.1-0.2 0.2 0 0.2 0.1 1.3 0.1 0.3 0 0.2 0.2 0.5 0.6z" id="NLD903" name="Zeeland">
 </path>
 <circle cx="969" cy="44.6" id="0">
 </circle>
 <circle cx="984.6" cy="49.3" id="1">
 </circle>
 <circle cx="984.5" cy="18.1" id="2">
 </circle>
</svg>